<svg id="Grupo_984353" data-name="Grupo 984353" xmlns="http://www.w3.org/2000/svg" xmlns:xlink="http://www.w3.org/1999/xlink" width="193.916" height="193.938" viewBox="0 0 193.916 193.938">
  <defs>
    <clipPath id="clip-path">
      <rect id="Rectángulo_345073" data-name="Rectángulo 345073" width="193.916" height="193.938" fill="none"/>
    </clipPath>
  </defs>
  <g id="Grupo_984352" data-name="Grupo 984352" clip-path="url(#clip-path)">
    <path id="Trazado_725911" data-name="Trazado 725911" d="M90.187,44.722c-.041-11.093-.22-22.188-.07-33.278A11.354,11.354,0,0,1,101.488.073c34.041-.052,68.083.042,102.124.085q-.007,17.381-.014,34.761c-.005,6.954-2.857,9.775-9.88,9.777q-51.766.015-103.53.026" transform="translate(-21.816 -0.014)" fill="#a3d441"/>
    <path id="Trazado_725912" data-name="Trazado 725912" d="M90.168,135.627c-.041-11.073-.2-22.147-.079-33.218.072-6.7,4.9-11.548,11.44-11.567,20.135-.058,40.271.03,60.406.061,0,11.1-.28,22.2.093,33.287.286,8.466-4.165,11.531-11.712,11.467-20.048-.171-40.1-.04-60.148-.03" transform="translate(-21.813 -22.001)" fill="#fece5d"/>
    <path id="Trazado_725913" data-name="Trazado 725913" d="M90.228,44.753q51.764-.013,103.53-.026c7.024,0,9.875-2.823,9.88-9.777q.013-17.38.014-34.761c6.958-.14,12.032,4.647,12.079,11.6.072,10.713.033,21.428.015,32.142-.014,7.893-4.738,12.733-12.673,12.809-9.2.087-18.4.023-27.6.022q-36.112,0-72.226-.015c-8.052-.013-12.757-4.426-13.015-12" transform="translate(-21.857 -0.045)" fill="#93c52e"/>
    <path id="Trazado_725914" data-name="Trazado 725914" d="M6.107,136.271c-8.821-11.525-7.959-27.051,2.066-37.216A28.037,28.037,0,0,1,44.73,96.049l.8.865.014-.1c-.3,1.586.45,2.972.965,4.35,3.214,8.584,2.105,16.78-2.6,24.4-2.305,3.731-4.684,7.831-9.836,8.453,1.284-2.6,1.558-5.146-1.934-5.826a27.589,27.589,0,0,0-7.855.02,2.954,2.954,0,0,0-2.841,3.358c.19,1.714,1.543,2.479,3.248,2.477,3.131,0,6.263-.032,9.394-.049-.354,2.251-2.4,2.435-3.946,2.975a30.227,30.227,0,0,1-21.028-.28c-.937-.346-1.822-1.663-3.008-.421m28.011-20.916c.083,2.148,1.087,3.541,3.416,3.547a3.047,3.047,0,0,0,3.337-3.268c.08-2.3-.965-4.1-3.371-4.136-2.207-.03-3.2,1.664-3.382,3.857m-18.207-.645c-.019,2.556.833,4.043,3.18,4.19,2.454.154,3.474-1.52,3.426-3.524-.047-1.928-1.084-3.8-3.309-3.934-2.321-.138-3.254,1.468-3.3,3.268" transform="translate(-0.007 -21.96)" fill="#fece5d"/>
    <path id="Trazado_725915" data-name="Trazado 725915" d="M5.967,45.4C-2.776,34.582-1.757,18.311,8.291,8.266S34.633-2.8,45.429,5.936c-.017,1.946.932,3.63,1.454,5.431a28.412,28.412,0,0,1,1.549,9.217c-.838,16.577-15.153,30.04-32.646,27.25C12.4,47.294,9.4,45.507,5.967,45.4m22.448-1.7c2.818-.414,5.648-1.046,7.808-3.2a3.041,3.041,0,0,0,.259-4.412,2.354,2.354,0,0,0-3.652-.371c-3.093,2.57-6.082,2.41-9.205-.03-1.422-1.112-2.86-.638-3.9.814-.982,1.363-.649,2.579.458,3.711,2.241,2.294,5.132,3.048,8.237,3.489M18.94,20.77c-2.162.38-3.067,1.674-3.076,3.915-.009,2.282,1.031,3.764,3.17,3.837,2.485.084,3.46-1.906,3.444-4.038A3.6,3.6,0,0,0,18.94,20.77m21.952,3.948c-.086-2.122-1.018-3.6-3.366-3.6-2.331,0-3.374,1.429-3.348,3.643.026,2.173,1.133,3.78,3.327,3.792s3.233-1.623,3.386-3.832" transform="translate(-0.006 0)" fill="#a3d441"/>
    <path id="Trazado_725916" data-name="Trazado 725916" d="M5.3,225.635A27.738,27.738,0,0,1,8.4,189.44c9.753-9.686,24.784-11.069,35.568-3.272l.873.785,0-.149c1.94,6.287,4.694,12.372,2.945,19.31-1.7,6.739-3.959,12.942-10.569,16.446-.076-.746.11-1.681-.271-2.208-2.17-3-5.312-3.887-8.873-3.877-3.461.009-6.417.95-8.419,3.97a2.4,2.4,0,0,0,.527,3.368,2.687,2.687,0,0,0,3.733.289c3.123-2.229,6.191-2.454,9.145.43.366.358,1.187.25,1.8.358-6.2,4.271-12.98,5.266-20.331,4-2.982-.515-5.471-2.551-8.588-2.411l.111.022-.748-.862m35.641-19.882c-.158-2.082-1.067-3.581-3.41-3.578-2.3,0-3.352,1.378-3.4,3.606-.049,2.175.8,3.714,3.119,3.893,2.692.208,3.275-1.755,3.695-3.921m-25.026,1a2.848,2.848,0,0,0,3.058,2.881,3.379,3.379,0,0,0,3.6-3.936c-.13-2-1.049-3.729-3.546-3.53-2.382.19-3.161,1.747-3.109,4.584" transform="translate(0 -43.879)" fill="#fe5368"/>
    <path id="Trazado_725917" data-name="Trazado 725917" d="M90.152,226.389c-.032-11.178-.172-22.356-.054-33.532.07-6.666,4.969-11.572,11.8-11.718,8.407-.18,16.824.044,25.236.093-.013,11.719-.007,23.44-.048,35.159-.015,4.334-2.607,8.342-6.046,9.047a42.564,42.564,0,0,1-7.829.877c-7.685.122-15.373.062-23.061.074" transform="translate(-21.815 -43.864)" fill="#fe5468"/>
    <path id="Trazado_725918" data-name="Trazado 725918" d="M90.2,135.652c20.049-.011,40.1-.142,60.148.03,7.547.064,12-3,11.712-11.467-.374-11.084-.092-22.19-.093-33.287,6.877-.027,11.717,4.269,11.9,11.423.283,11.1.3,22.217-.013,33.314-.2,7.2-5.091,11.472-12.37,11.491-19.689.049-39.38-.135-59.065.1-6.733.081-12.585-5.472-12.219-11.606" transform="translate(-21.847 -22.027)" fill="#feb546"/>
    <path id="Trazado_725919" data-name="Trazado 725919" d="M90.184,226.441c7.687-.011,15.376.048,23.061-.074a42.562,42.562,0,0,0,7.829-.877c3.439-.7,6.031-4.712,6.046-9.047.042-11.719.036-23.44.049-35.159,7.434.728,11.444,4.907,11.5,12.279q.125,15.892,0,31.786c-.06,7.817-4.769,12.407-12.551,12.426q-11.731.031-23.462,0c-7.294-.021-11.672-4.019-12.476-11.335" transform="translate(-21.847 -43.915)" fill="#e83d52"/>
    <path id="Trazado_725920" data-name="Trazado 725920" d="M7.838,228.289c3.117-.14,5.606,1.9,8.588,2.412,7.35,1.268,14.131.274,20.331-4l2.36-2.329c6.61-3.5,8.871-9.706,10.57-16.446,1.749-6.938-1-13.023-2.945-19.309,8.613,5.811,12.271,14.263,11.706,24.256-.643,11.358-6.559,19.68-16.978,24.369-11.981,5.392-26.751,1.32-33.632-8.956" transform="translate(-1.899 -45.692)" fill="#e93f54"/>
    <path id="Trazado_725921" data-name="Trazado 725921" d="M36.021,135.988c5.153-.621,7.531-4.721,9.836-8.453,4.7-7.617,5.813-15.813,2.6-24.4-.516-1.378-1.265-2.764-.965-4.35C56.5,104.317,60.975,118,57.27,129.311,53.8,139.917,46.429,146.7,35.525,148.639c-10.935,1.946-20.434-1.335-27.475-10.4,1.187-1.242,2.072.075,3.009.421a30.222,30.222,0,0,0,21.028.28c1.541-.54,3.592-.724,3.946-2.975Z" transform="translate(-1.95 -23.931)" fill="#feb647"/>
    <path id="Trazado_725922" data-name="Trazado 725922" d="M7.865,47.3c3.438.105,6.433,1.892,9.82,2.432,17.493,2.79,31.808-10.671,32.646-27.25a28.412,28.412,0,0,0-1.549-9.217c-.522-1.8-1.472-3.485-1.453-5.431,9.355,7.272,12.975,16.893,10.5,28.326C55.313,47.775,47.817,55.285,36.2,57.8c-11.435,2.473-21.053-1.151-28.33-10.5" transform="translate(-1.905 -1.898)" fill="#93c52e"/>
    <path id="Trazado_725923" data-name="Trazado 725923" d="M59.825,98.64l-.8-.865.8.865" transform="translate(-14.297 -23.686)" fill="#feb647"/>
    <path id="Trazado_725924" data-name="Trazado 725924" d="M58.9,188.563l-.873-.786c.455.08.823.255.873.786" transform="translate(-14.057 -45.488)" fill="#e93f54"/>
    <path id="Trazado_725925" data-name="Trazado 725925" d="M7,239.862l.747.862L7,239.862" transform="translate(-1.695 -58.106)" fill="#e93f54"/>
    <path id="Trazado_725926" data-name="Trazado 725926" d="M40.93,145.908c-3.131.017-6.263.045-9.394.049-1.7,0-3.058-.763-3.248-2.477a2.953,2.953,0,0,1,2.841-3.358,27.589,27.589,0,0,1,7.855-.02c3.492.68,3.217,3.23,1.934,5.826l.012-.02" transform="translate(-6.847 -33.871)" fill="#fe8242"/>
    <path id="Trazado_725927" data-name="Trazado 725927" d="M45.016,122.02c.178-2.193,1.175-3.887,3.382-3.857,2.407.033,3.451,1.831,3.371,4.136a3.047,3.047,0,0,1-3.337,3.268c-2.329-.006-3.333-1.4-3.416-3.547" transform="translate(-10.905 -28.624)" fill="#fe8242"/>
    <path id="Trazado_725928" data-name="Trazado 725928" d="M20.989,121.355c.043-1.8.976-3.406,3.3-3.268,2.226.132,3.262,2.005,3.309,3.934.048,2-.972,3.678-3.426,3.524-2.348-.147-3.2-1.634-3.18-4.19" transform="translate(-5.084 -28.604)" fill="#fe8242"/>
    <path id="Trazado_725929" data-name="Trazado 725929" d="M34.524,54.889c-3.1-.44-6-1.195-8.238-3.488-1.106-1.133-1.44-2.349-.458-3.712,1.045-1.452,2.482-1.925,3.905-.814,3.123,2.439,6.112,2.6,9.205.03a2.353,2.353,0,0,1,3.652.37,3.043,3.043,0,0,1-.259,4.413c-2.16,2.154-4.99,2.788-7.808,3.2" transform="translate(-6.116 -11.193)" fill="#4f800a"/>
    <path id="Trazado_725930" data-name="Trazado 725930" d="M24,27.411a3.6,3.6,0,0,1,3.539,3.714c.017,2.132-.959,4.122-3.444,4.037-2.138-.073-3.18-1.553-3.17-3.836.009-2.241.915-3.535,3.076-3.915" transform="translate(-5.069 -6.64)" fill="#4f800a"/>
    <path id="Trazado_725931" data-name="Trazado 725931" d="M51.81,31.468c-.153,2.209-1.182,3.843-3.386,3.832s-3.3-1.619-3.327-3.792c-.027-2.213,1.017-3.642,3.348-3.643,2.348,0,3.28,1.48,3.366,3.6" transform="translate(-10.924 -6.75)" fill="#4f800a"/>
    <path id="Trazado_725932" data-name="Trazado 725932" d="M43.352,233.859l-2.36,2.329c-.61-.108-1.431,0-1.8-.358-2.954-2.885-6.021-2.659-9.145-.43a2.689,2.689,0,0,1-3.734-.289,2.4,2.4,0,0,1-.526-3.368c2-3.02,4.956-3.961,8.419-3.97,3.561-.01,6.7.876,8.873,3.877.38.526.195,1.462.271,2.208" transform="translate(-6.133 -55.177)" fill="#ca1f34"/>
    <path id="Trazado_725933" data-name="Trazado 725933" d="M51.853,212.48c-.42,2.166-1,4.128-3.695,3.921-2.319-.179-3.168-1.718-3.118-3.893.051-2.229,1.1-3.6,3.4-3.607,2.343,0,3.252,1.5,3.41,3.579" transform="translate(-10.91 -50.605)" fill="#ca1f34"/>
    <path id="Trazado_725934" data-name="Trazado 725934" d="M21.005,213.474c-.052-2.837.727-4.394,3.109-4.584,2.5-.2,3.416,1.529,3.546,3.53a3.379,3.379,0,0,1-3.6,3.936,2.848,2.848,0,0,1-3.058-2.881" transform="translate(-5.088 -50.599)" fill="#ca1f34"/>
  </g>
</svg>
