<svg id="Grupo_984349" data-name="Grupo 984349" xmlns="http://www.w3.org/2000/svg" xmlns:xlink="http://www.w3.org/1999/xlink" width="161.085" height="161.258" viewBox="0 0 161.085 161.258">
  <defs>
    <clipPath id="clip-path">
      <rect id="Rectángulo_345071" data-name="Rectángulo 345071" width="161.085" height="161.258" fill="none"/>
    </clipPath>
  </defs>
  <g id="Grupo_984348" data-name="Grupo 984348" clip-path="url(#clip-path)">
    <path id="Trazado_725855" data-name="Trazado 725855" d="M98.721,106.662c-11.911,9.5-25.279,5.2-29.306-8.852-1.308-4.563-3.06-9.054-3.812-13.707-1.315-8.138-6.467-14.179-10.386-20.919-.611-1.051-1.494-.584-2.272-.652-1.271-.112-.945.907-.948,1.577-.025,4-.079,8.008.021,12.009.038,1.536-.385,2.012-1.97,2.007q-24.019-.085-48.038,0c-1.537,0-2.009-.392-2-1.972Q.1,54.729.009,33.306c-.006-1.542.4-2,1.975-2q24.018.084,48.038,0c1.547-.005,2.044.405,2,1.98-.11,3.675.1,7.363-.086,11.032-.106,2.136.545,2.674,2.658,2.653q16.714-.163,33.431-.026c6.042.045,9.876,5.82,7.375,11a7.721,7.721,0,0,1-7.264,4.569c-4.182.1-5.6,1.982-4.594,6.274,1.378,5.88,2.895,11.727,4.346,17.562.917.353,1.152-.426,1.521-.89a39.173,39.173,0,0,1,20.23-13.893c2.5-.709,1.959-2.276,2.09-3.906.136-1.685-.177-2.632-2.124-3.184-5.5-1.564-8.333-5.639-8.237-11.676.04-2.552-.183-4.233-3.121-5.314-3.826-1.408-5.446-5.654-4.4-9.729.859-3.342,1.86-6.649,2.858-9.954.436-1.44.52-2.3-1.222-3.21-5.656-2.954-8.207-8.681-6.79-14.347A12.772,12.772,0,0,1,101.708.214c7.887.088,15.828-.788,23.652.474,14.805,2.387,25.218,13.219,27.633,28.3,2.12,13.234-5.067,26.916-17.65,33.677-1.417.761-2.953,1.107-2.991,3.55-.049,3.155.655,4.517,3.978,5.391a33.235,33.235,0,0,1,24.7,31.96c.088,7.789.06,15.58.008,23.37-.052,7.83-5.324,13.281-13.166,13.415-2.055.035-2.5.584-2.451,2.535.14,5.3-.065,10.605.1,15.9.066,2.085-.6,2.463-2.533,2.452-13.848-.085-27.7-.108-41.545.015-2.339.021-2.793-.654-2.78-2.866.1-16.445.053-32.891.053-49.336Zm31.335-11.92-.181.091.235-.118c-.945,2.624-.007,5.243.761,7.538,2.469,7.381,1.165,13.087-5.388,17.844-3.737,2.713-3.065,2.778-6.862-.11-6.208-4.721-8.065-10.2-5.337-17.546a14.049,14.049,0,0,0,.883-7.417L109.741,99.1c-.84-7.252-1.629-14.059-2.448-21.14A36.026,36.026,0,0,0,90.617,92.879a3.387,3.387,0,0,0-.307,3.092c1.076,2.762-1.071,2.468-2.608,3.065-2.33.906-2.223-.865-2.535-2.075-1.508-5.85-2.937-11.721-4.419-17.578-2.3-9.071-2.305-9.069-11.018-5.3a1.555,1.555,0,0,1-.312.086c-.935.184-1.231.685-.95,1.631,2.4,8.064,4.462,16.241,7.257,24.163,1.759,4.985,7.812,7.569,12.868,6.462,4.8-1.05,10.166-6.2,10.047-10.147-.078-2.586,1.075-2.574,3.036-2.682,2.38-.131,2.265,1.143,2.259,2.766-.037,8.542.058,17.086-.07,25.626-.032,2.2.433,2.938,2.791,2.905q15.406-.209,30.816,0c2.267.029,2.9-.546,2.858-2.839-.144-8.54-.013-17.085-.092-25.627-.018-1.905.193-2.844,2.535-2.852,2.422-.008,2.8.851,2.742,2.986-.149,5.078-.048,10.163-.048,15.245,0,8.353,0,8.3,8.452,7.884,1.594-.078,1.988-.572,1.962-2.07-.09-5.081.24-10.186-.134-15.241-.784-10.577-5.907-18.553-15.282-23.657-3.506-1.909-3.582-1.812-4.013,2.3-.617,5.88-1.27,11.757-1.946,17.982-1.693-1.627-3.066-2.948-4.45-4.255M25.974,72.894H39.261c7.587,0,7.53,0,7.571-7.73a3.386,3.386,0,0,0-1.961-3.473c-3.077-1.774-5.935-3.924-8.929-5.848-1.3-.835-1.327-1.436,0-2.251,1.653-1.015,3.118-2.434,4.878-3.16,5.41-2.231,6.828-6.215,6.063-11.684-.257-1.833-.683-2.257-2.431-2.247Q25.977,36.6,7.5,36.5c-1.854-.012-2.32.529-2.306,2.338q.124,15.88,0,31.762c-.014,1.8.44,2.378,2.3,2.342,6.156-.116,12.315-.044,18.473-.044M132.765,57.9a10.4,10.4,0,0,0,1.247-.485c9.573-5.327,15.416-16.8,13.913-27.3C146.2,18.095,137.6,8.29,126.365,6.135c-8.662-1.661-17.478-.743-26.217-.579-3.764.071-6.616,3.9-6.605,7.63.01,3.614,2.673,7.229,6.336,7.534,4.834.4,9.724.22,14.588.15a2.316,2.316,0,0,0,2.352-2.585,2.443,2.443,0,0,0-2.5-2.476c-1.291-.1-2.6-.052-3.893-.062-1.517-.012-1.392-1.146-1.285-2.072.121-1.05-.692-2.455.926-3.047a8.89,8.89,0,0,1,11.977,8.126c.031,1.382.183,1.974,1.744,2.371,6.039,1.539,8.656,5,8.663,11.186a5.1,5.1,0,0,0,1.831,4.149,10.63,10.63,0,0,1,.079,15.624c-1.919,1.769-2.153,3.442-1.6,5.819m-20.112-31.75c-2.889.28-7.3-1.442-9.7.64-2.215,1.927-2.328,6.275-3.356,9.56-.225.719-.4,1.454-.614,2.178-.7,2.4.212,3.918,2.482,4.849,5.058,2.075,5.046,2.1,5.047,7.559,0,.865-.034,1.731.01,2.593a6.232,6.232,0,0,0,6.367,6.358c2.05.081,4.108.079,6.158,0,1.833-.071,3.229-.222,3.154,2.52-.064,2.368-.785,2.971-2.957,2.745-.857-.088-2.052-.652-2.4,1.186-.941,4.992,1.811,8.385,4.658,11.8.3.359.776.592,1.061.1,1.584-2.718,4.764-4.49,4.731-8.176-.049-5.511.051-11.023-.047-16.533-.035-1.975.327-3.2,2.309-4.315a5.486,5.486,0,0,0,.028-9.775c-1.966-1.108-2.526-2.3-2.322-4.3a24.847,24.847,0,0,0,.014-3.24c-.114-3.768-2.053-5.678-5.893-5.743-2.7-.046-5.4-.009-8.736-.009m-8.731,116.716c0,3.675.047,7.352-.024,11.026-.027,1.418.2,2.177,1.905,2.129,4-.111,8-.029,12-.044.72,0,1.8.136,1.63-.972-.883-5.659,2.764-12.2-3.247-16.872-.829-.644-1.019-1.414-.081-2.112.979-.728,1.427-2.355,2.969-2.1,1.5.246,5.611,5.783,5.618,7.378.017,4.216.058,8.433-.021,12.648-.028,1.486.338,2.116,1.963,2.073q5.833-.155,11.673,0c1.588.04,2.005-.525,1.992-2.044-.065-7.35-.076-14.7.005-22.052.019-1.677-.681-1.924-2.114-1.918-10.7.044-21.4.058-32.106-.012-1.686-.011-2.259.443-2.2,2.174.125,3.562.038,7.133.038,10.7m18.749-55.914a2.729,2.729,0,0,0-1.692,2.543q-1.774,9.553-3.438,19.127c-.347,1.977,2.329,6.3,4.167,6.923.5.171.764-.064,1.137-.294,3.231-1.993,4.3-4.494,3.525-8.366-.148-.741-.267-1.488-.405-2.23-1.08-5.809-2.162-11.617-3.294-17.7M61.3,57.31c3.9,0,7.8-.138,11.682.055,2.174.108,2.462-.778,2.425-2.619-.035-1.732-.1-2.729-2.361-2.684-7.787.155-15.578.1-23.367.036-2.343-.019-4.953.793-5.083,2.769-.088,1.337,2.725,2.564,5.022,2.481,3.89-.14,7.788-.038,11.683-.038m89.411,67.523c-5.239,0-5.239,0-5.239,5.134v.969c0,4.484,1.776,5.543,5.947,3.5a7.755,7.755,0,0,0,3.748-3.857c1.875-4.143.9-5.749-3.486-5.749h-.969M60.467,62.5c1.846,2.5,3.23,4.389,4.636,6.264.386.514.813,1.085,1.585.826,3.665-1.233,7.332-2.462,10.978-3.75,1.187-.419.96-1.606.991-2.51.042-1.265-1.054-.8-1.677-.807-5.252-.04-10.5-.023-16.514-.023m24.167-5.2c1.342,0,2.417.032,3.49-.007,1.624-.06,2.708-.9,2.734-2.541A2.453,2.453,0,0,0,88.2,52.144a41.379,41.379,0,0,1-4.5-.064c-2.895-.452-3.412.891-3.188,3.406.323,3.641,3.1.85,4.125,1.815m29.115,31.047,3.97-4.328c.442-.483.949-1,.4-1.666-1.712-2.09-2.889-4.65-5.811-6.794.5,4.432.917,8.147,1.44,12.788m18.158-12.96c-6.912,6.391-7.066,8.7-1.338,11.977.42-3.763.834-7.464,1.338-11.977" transform="translate(-0.002 0)" fill="#030302"/>
    <path id="Trazado_725856" data-name="Trazado 725856" d="M36.4,146.683c0,5.192-.08,10.386.044,15.574.044,1.838-.488,2.335-2.321,2.32q-15.9-.13-31.8,0c-1.833.015-2.335-.486-2.32-2.32q.13-15.9,0-31.8c-.015-1.833.487-2.335,2.32-2.32q15.9.13,31.8,0c1.834-.015,2.362.483,2.321,2.32-.121,5.405-.044,10.815-.044,16.224m-31.161-.576c0,3.567.092,7.137-.038,10.7-.068,1.846.23,2.644,2.4,2.6,7.13-.157,14.267-.131,21.4-.012,1.948.033,2.27-.675,2.248-2.4-.086-7.133-.108-14.268.011-21.4.033-1.948-.675-2.269-2.4-2.248-7.133.087-14.268.109-21.4-.011C5.5,133.294,5.14,134,5.2,135.732c.12,3.455.036,6.916.036,10.375" transform="translate(0 -44.899)"/>
    <path id="Trazado_725857" data-name="Trazado 725857" d="M18.544,192.141c5.192,0,10.386.08,15.574-.044,1.838-.044,2.335.489,2.32,2.322q-.13,15.9,0,31.8c.015,1.835-.488,2.334-2.32,2.319q-15.9-.13-31.8,0c-1.834.015-2.334-.488-2.319-2.32q.13-15.9,0-31.8c-.015-1.835.485-2.361,2.321-2.32,5.405.12,10.815.043,16.223.043M17.952,223.3c3.567,0,7.137-.086,10.7.036,1.819.062,2.661-.188,2.612-2.379-.16-7.129-.131-14.267-.014-21.4.031-1.923-.639-2.287-2.389-2.265-7.132.09-14.267.108-21.4-.009-1.923-.031-2.287.639-2.265,2.389.09,7.133.108,14.268-.008,21.4-.032,1.924.635,2.327,2.389,2.264,3.455-.125,6.916-.037,10.375-.037" transform="translate(0 -67.309)"/>
    <path id="Trazado_725858" data-name="Trazado 725858" d="M84.572,197.324c-6.165,0-12.335-.134-18.494.064-2.581.083-1.975-1.432-2.1-2.854-.153-1.673.136-2.47,2.172-2.453,12.439.1,24.879.129,37.317-.013,2.58-.03,1.973,1.434,2.1,2.855.154,1.673-.134,2.5-2.173,2.453-6.271-.143-12.547-.052-18.82-.052" transform="translate(-22.404 -67.299)"/>
    <path id="Trazado_725859" data-name="Trazado 725859" d="M84.777,208.12c6.165,0,12.335.123,18.494-.064,2.291-.07,2.322.95,2.324,2.661s-.046,2.683-2.326,2.658q-18.494-.2-36.991,0c-2.283.025-2.321-.948-2.322-2.66s.04-2.729,2.326-2.659c6.16.188,12.329.064,18.494.064" transform="translate(-22.41 -72.9)"/>
    <path id="Trazado_725860" data-name="Trazado 725860" d="M84.605,245.294c-6.165,0-12.336-.14-18.494.067-2.568.086-2.028-1.384-2.132-2.83-.116-1.614.04-2.5,2.144-2.484,12.438.112,24.879.135,37.316-.01,2.551-.03,2.027,1.38,2.13,2.828.114,1.612-.033,2.539-2.144,2.486-6.27-.157-12.546-.057-18.82-.057" transform="translate(-22.408 -84.107)"/>
    <path id="Trazado_725861" data-name="Trazado 725861" d="M95.581,224.112c4.543,0,9.091.146,13.625-.059,2.4-.108,1.951,1.318,1.95,2.655s.45,2.7-1.948,2.657q-13.624-.226-27.253,0c-2.4.04-1.949-1.32-1.949-2.656s-.456-2.764,1.949-2.656c4.534.2,9.082.059,13.625.059" transform="translate(-28.022 -78.505)"/>
    <path id="Trazado_725862" data-name="Trazado 725862" d="M74.032,133.359c-2.379,0-4.764-.1-7.135.032-1.99.115-3.052-.055-3.049-2.623,0-2.548,1.032-2.685,3.036-2.641,5.188.116,10.386.177,15.568-.024,2.282-.088,2.338.93,2.33,2.654-.008,1.7-.011,2.852-2.321,2.658-2.792-.236-5.618-.056-8.43-.056" transform="translate(-22.372 -44.885)"/>
    <path id="Trazado_725863" data-name="Trazado 725863" d="M74.2,149.359c-2.812,0-5.63-.124-8.433.036-2.558.146-1.65-1.63-1.751-2.818-.108-1.269-.37-2.516,1.794-2.46q8.591.22,17.192.007c2.555-.062,1.647,1.638,1.749,2.826.108,1.267.379,2.591-1.794,2.454-2.908-.182-5.837-.045-8.757-.045" transform="translate(-22.403 -50.497)"/>
    <path id="Trazado_725864" data-name="Trazado 725864" d="M74.093,165.344c-2.487,0-4.982-.124-7.459.039-2.021.133-2.8-.355-2.739-2.586.059-2.014.418-2.776,2.635-2.7,5.4.177,10.817.178,16.217,0,2.285-.075,2.07,1.165,2.009,2.6-.055,1.31.514,2.857-1.907,2.693-2.906-.2-5.836-.046-8.756-.046" transform="translate(-22.387 -56.094)"/>
    <path id="Trazado_725865" data-name="Trazado 725865" d="M74.253,181.348c-2.379,0-4.759-.043-7.137.014-1.909.045-3.41.292-3.3-2.7.1-2.674,1.284-2.563,3.145-2.534,4.865.077,9.732.057,14.6.01,1.908-.018,3.336-.278,3.312,2.7-.025,3.134-1.744,2.507-3.478,2.511-2.38.005-4.758,0-7.137,0" transform="translate(-22.358 -61.712)"/>
    <path id="Trazado_725866" data-name="Trazado 725866" d="M67,229.245c-1.783.136-3.455.437-3.078-2.263.219-1.567-.39-3.342,2.349-2.941,1.565.229,3.371-.384,2.928,2.35-.244,1.511.541,3.6-2.2,2.854" transform="translate(-22.38 -78.482)"/>
    <path id="Trazado_725867" data-name="Trazado 725867" d="M166.94,133.407l4.44,4.269c.676-6.226,1.328-12.1,1.945-17.982.431-4.111.508-4.209,4.013-2.3,9.376,5.1,14.5,13.081,15.283,23.657.375,5.055.045,10.16.134,15.241.027,1.5-.368,1.992-1.962,2.07-8.454.415-8.451.468-8.451-7.884,0-5.083-.1-10.168.047-15.246.063-2.135-.32-2.995-2.741-2.986-2.342.008-2.553.946-2.535,2.852.079,8.542-.052,17.086.092,25.626.039,2.294-.591,2.868-2.858,2.84q-15.406-.192-30.816,0c-2.357.032-2.823-.709-2.791-2.905.128-8.541.032-17.085.069-25.627.007-1.623.122-2.9-2.258-2.765-1.961.107-3.114.1-3.036,2.682.119,3.943-5.252,9.1-10.047,10.147-5.056,1.106-11.108-1.477-12.868-6.462-2.8-7.921-4.862-16.1-7.257-24.163-.281-.945.015-1.446.95-1.631a1.558,1.558,0,0,0,.313-.085c8.713-3.767,8.722-3.77,11.017,5.3,1.483,5.857,2.912,11.728,4.419,17.578.312,1.21.205,2.98,2.535,2.075,1.538-.6,3.684-.3,2.609-3.066a3.387,3.387,0,0,1,.306-3.092,36.023,36.023,0,0,1,16.676-14.921c.82,7.081,1.608,13.888,2.448,21.14l4.426-4.072a14.051,14.051,0,0,1-.883,7.418c-2.728,7.341-.871,12.824,5.337,17.546,3.8,2.887,3.125,2.824,6.862.11,6.552-4.757,7.856-10.463,5.387-17.843-.768-2.3-1.706-4.914-.761-7.539l-.044.014" transform="translate(-36.875 -38.678)" fill="#b1d97d"/>
    <path id="Trazado_725868" data-name="Trazado 725868" d="M28.773,92.579c-6.158,0-12.317-.073-18.473.044-1.862.035-2.317-.539-2.3-2.342Q8.12,74.4,8,58.518c-.014-1.809.452-2.35,2.306-2.337q18.473.123,36.947.005c1.748-.01,2.174.414,2.431,2.247.765,5.469-.653,9.453-6.062,11.684-1.76.726-3.225,2.145-4.879,3.16-1.326.815-1.3,1.415,0,2.251,2.995,1.923,5.852,4.074,8.93,5.847a3.387,3.387,0,0,1,1.961,3.474c-.042,7.73.017,7.73-7.571,7.73H28.773M18.205,90.717c1.111-.179,1.545-1.012,2.132-1.6,7.97-7.934,15.887-15.921,23.9-23.815,1.47-1.449,1.853-2.289.186-4.039-1.908-2-2.756-.817-4.025.463-6.626,6.678-13.334,13.275-19.909,20-1.471,1.5-2.532,2.17-3.952.107-1.451-2.108-2.367-.425-3.484.49-1.373,1.125-1.59,2.032-.1,3.287s2.767,2.732,4.148,4.1c.371.368.777.7,1.108,1" transform="translate(-2.802 -19.685)" fill="#e3e6ea"/>
    <path id="Trazado_725869" data-name="Trazado 725869" d="M183.217,60.683c-.556-2.377-.322-4.05,1.6-5.819a10.63,10.63,0,0,0-.079-15.623,5.106,5.106,0,0,1-1.831-4.15c-.007-6.189-2.624-9.646-8.663-11.186-1.561-.4-1.714-.989-1.744-2.371a8.89,8.89,0,0,0-11.977-8.126c-1.619.592-.8,2-.926,3.048-.107.925-.232,2.059,1.285,2.071,1.3.01,2.6-.039,3.893.062a2.443,2.443,0,0,1,2.5,2.476,2.316,2.316,0,0,1-2.352,2.585c-4.864.07-9.753.254-14.588-.149-3.663-.306-6.326-3.921-6.336-7.535-.01-3.729,2.841-7.559,6.605-7.63,8.739-.165,17.555-1.083,26.217.578,11.238,2.155,19.837,11.96,21.56,23.987,1.5,10.5-4.34,21.968-13.913,27.3a10.289,10.289,0,0,1-1.247.485" transform="translate(-50.455 -2.78)" fill="#636b76"/>
    <path id="Trazado_725870" data-name="Trazado 725870" d="M165.918,40.04c3.332,0,6.035-.037,8.736.009,3.839.066,5.778,1.975,5.893,5.743a24.732,24.732,0,0,1-.014,3.24c-.2,2,.357,3.193,2.323,4.3a5.486,5.486,0,0,1-.028,9.775c-1.983,1.112-2.345,2.339-2.309,4.315.1,5.509,0,11.023.046,16.533.033,3.686-3.146,5.457-4.73,8.176-.285.489-.762.255-1.061-.1-2.847-3.416-5.6-6.809-4.658-11.8.347-1.838,1.541-1.275,2.4-1.186,2.173.225,2.893-.377,2.957-2.745.074-2.742-1.321-2.592-3.154-2.52-2.05.079-4.108.082-6.158,0a6.232,6.232,0,0,1-6.367-6.357c-.043-.862-.01-1.729-.01-2.593,0-5.456.01-5.484-5.047-7.559-2.27-.932-3.186-2.446-2.482-4.849.212-.724.388-1.459.613-2.179,1.029-3.284,1.141-7.632,3.357-9.559,2.393-2.083,6.807-.361,9.7-.64" transform="translate(-53.267 -13.888)" fill="#eeceb2"/>
    <path id="Trazado_725871" data-name="Trazado 725871" d="M159.95,212.986c0-3.568.088-7.138-.038-10.7-.061-1.73.512-2.184,2.2-2.174q16.052.1,32.106.012c1.433-.006,2.133.242,2.115,1.919-.082,7.35-.071,14.7-.006,22.052.013,1.519-.4,2.085-1.992,2.044q-5.834-.148-11.673,0c-1.625.044-1.991-.588-1.963-2.074.079-4.215.038-8.431.021-12.647-.006-1.595-4.118-7.133-5.618-7.378-1.543-.253-1.99,1.373-2.969,2.1-.939.7-.749,1.468.081,2.113,6.011,4.67,2.365,11.213,3.247,16.872.173,1.107-.911.969-1.63.972-4,.014-8-.068-12,.044-1.7.047-1.932-.712-1.9-2.13.07-3.674.023-7.35.023-11.026" transform="translate(-56.031 -70.118)" fill="#d19f6b"/>
    <path id="Trazado_725872" data-name="Trazado 725872" d="M186.052,133.858c1.133,6.086,2.214,11.894,3.294,17.7.138.743.258,1.49.405,2.23.771,3.873-.294,6.373-3.524,8.366-.374.231-.636.464-1.138.294-1.838-.626-4.513-4.945-4.167-6.923q1.677-9.571,3.438-19.126a2.728,2.728,0,0,1,1.692-2.543" transform="translate(-63.383 -46.903)" fill="#dee1e5"/>
    <path id="Trazado_725873" data-name="Trazado 725873" d="M85.345,85.391c-3.9,0-7.793-.1-11.683.038-2.3.083-5.11-1.145-5.022-2.482.13-1.977,2.74-2.788,5.083-2.769,7.789.063,15.581.119,23.367-.035,2.264-.045,2.326.952,2.361,2.684.038,1.841-.251,2.727-2.425,2.619-3.885-.194-7.786-.055-11.681-.055" transform="translate(-24.05 -28.081)" fill="#fc816d"/>
    <path id="Trazado_725874" data-name="Trazado 725874" d="M229.169,192.167h.969c4.382,0,5.362,1.606,3.486,5.749a7.758,7.758,0,0,1-3.747,3.858c-4.17,2.038-5.947.98-5.947-3.5V197.3c0-5.134,0-5.134,5.239-5.134" transform="translate(-78.464 -67.334)" fill="#edceb2"/>
    <path id="Trazado_725875" data-name="Trazado 725875" d="M93.079,96.188c6.009,0,11.262-.017,16.514.023.622,0,1.719-.458,1.677.807-.031.9.2,2.091-.991,2.51-3.646,1.287-7.313,2.516-10.978,3.749-.772.26-1.2-.312-1.585-.825-1.406-1.875-2.791-3.766-4.636-6.264" transform="translate(-32.614 -33.684)" fill="#eacbaf"/>
    <path id="Trazado_725876" data-name="Trazado 725876" d="M128.031,85.346c-1.03-.965-3.8,1.826-4.126-1.815-.223-2.515.294-3.858,3.189-3.407a41.216,41.216,0,0,0,4.5.065,2.453,2.453,0,0,1,2.658,2.608c-.026,1.645-1.11,2.481-2.734,2.541-1.073.04-2.148.008-3.49.008" transform="translate(-43.4 -28.045)" fill="#a7afba"/>
    <path id="Trazado_725877" data-name="Trazado 725877" d="M174.323,129.105c-.522-4.641-.941-8.356-1.44-12.788,2.923,2.143,4.1,4.7,5.811,6.793.548.67.042,1.184-.4,1.666l-3.97,4.329" transform="translate(-60.577 -40.757)" fill="#95c561"/>
    <path id="Trazado_725878" data-name="Trazado 725878" d="M200.126,116.053c-.5,4.513-.918,8.214-1.338,11.977-5.728-3.275-5.574-5.586,1.338-11.977" transform="translate(-68.222 -40.664)" fill="#95c561"/>
    <path id="Trazado_725879" data-name="Trazado 725879" d="M200.161,145.8l-.235.117c.06-.03.12-.06.186-.1a.232.232,0,0,1,.049-.02" transform="translate(-70.053 -51.089)" fill="#b1d97d"/>
    <path id="Trazado_725880" data-name="Trazado 725880" d="M8.034,148.9c0-3.458.084-6.92-.036-10.375-.06-1.732.3-2.438,2.248-2.405,7.131.12,14.267.1,21.4.011,1.729-.021,2.437.3,2.4,2.248-.12,7.132-.1,14.267-.011,21.4.021,1.729-.3,2.437-2.248,2.4-7.131-.12-14.268-.146-21.4.012-2.166.048-2.463-.75-2.4-2.6.13-3.562.038-7.132.038-10.7" transform="translate(-2.799 -47.697)" fill="#fee9a6"/>
    <path id="Trazado_725881" data-name="Trazado 725881" d="M20.751,226.1c-3.459,0-6.92-.088-10.375.037-1.753.063-2.42-.34-2.389-2.264.116-7.132.1-14.267.008-21.4-.022-1.75.341-2.42,2.265-2.389,7.132.117,14.267.1,21.4.009,1.75-.022,2.42.341,2.389,2.265-.117,7.132-.147,14.269.014,21.4.049,2.19-.793,2.441-2.612,2.379-3.562-.122-7.132-.036-10.7-.036" transform="translate(-2.798 -70.109)" fill="#fee9a6"/>
    <path id="Trazado_725882" data-name="Trazado 725882" d="M20.323,92.881c-.331-.3-.737-.629-1.108-1-1.381-1.371-2.666-2.853-4.148-4.1s-1.272-2.162.1-3.287c1.117-.916,2.033-2.6,3.484-.49,1.419,2.063,2.481,1.4,3.952-.107,6.575-6.727,13.283-13.325,19.909-20,1.269-1.28,2.117-2.466,4.025-.463,1.666,1.75,1.284,2.591-.186,4.039-8.009,7.894-15.926,15.881-23.9,23.815-.587.585-1.021,1.417-2.132,1.6" transform="translate(-4.92 -21.85)" fill="#040404"/>
  </g>
</svg>
