<svg id="Grupo_984355" data-name="Grupo 984355" xmlns="http://www.w3.org/2000/svg" xmlns:xlink="http://www.w3.org/1999/xlink" width="189.914" height="189.863" viewBox="0 0 189.914 189.863">
  <defs>
    <clipPath id="clip-path">
      <rect id="Rectángulo_345074" data-name="Rectángulo 345074" width="189.913" height="189.863" fill="none"/>
    </clipPath>
  </defs>
  <g id="Grupo_984354" data-name="Grupo 984354" clip-path="url(#clip-path)">
    <path id="Trazado_725935" data-name="Trazado 725935" d="M52.441,104.235c-9.207-6.423-15.037-14.174-17.5-24.182a39.459,39.459,0,0,1,23.1-46.163c2.578-1.091,3.5-2.33,3.357-5.122-.26-4.929-.093-9.882-.066-14.825.032-5.778,2.07-7.852,7.758-7.875,6.549-.027,13.1-.041,19.647.016,1.793.015,3.1.007,3.756-2.269C93.244,1.227,95.491.005,98.244,0Q125.675,0,153.108.011c2.6,0,4.836,1.206,5.5,3.608.695,2.53,2.169,2.48,4.1,2.464,6.425-.053,12.851-.037,19.276-.016,5.769.02,7.924,2.11,7.925,7.74q.012,84.151,0,168.3c0,5.679-2.106,7.748-7.861,7.75q-56.532.011-113.064,0c-5.543,0-7.6-2.037-7.645-7.564-.039-4.695-.128-9.4.043-14.085.082-2.237-.492-2.927-2.829-2.9-5.048.053-10.139.559-15.144-.591-1.559-.358-3.083-.926-4.659-1.138-4.449-.6-7.213-5.634-12.11-4.738-4.556.834-9.108.283-13.657.436-3.456.117-6.922-.062-10.378.058-1.822.063-2.616-.306-2.6-2.392q.14-19.09,0-38.182c-.016-2.029.643-2.472,2.52-2.4,8.013.294,16.048-.445,24.045.43a2.216,2.216,0,0,0,2.156-.953c6.116-6.757,13.758-10.548,23.72-11.6m73.088-79.741c-14.085,0-28.17-.033-42.254.05-1.377.008-3.79-1.218-3.665,1.959.091,2.326-.652,4.547,3.054,5.387,15.632,3.545,27.706,16.454,30.089,31.575,2.6,16.5-4.344,32.134-18.289,40.667-2.37,1.451-4.264,2.45-2.62,5.689.653,1.287.011,3.01-.661,4.293-.957,1.827-.324,2.352,1.354,3.146,5.207,2.461,6.937,7.576,4.26,12.676a3.123,3.123,0,0,0,.085,3.572,8.084,8.084,0,0,1,.05,8.472,3.422,3.422,0,0,0,.008,3.9,9.148,9.148,0,0,1-5.263,12.941c-1.912.7-4.744-.758-5.62,1.441-.767,1.924-.188,4.385-.2,6.608a5.01,5.01,0,0,1-.033,1.476c-.913,2.757.307,3.146,2.819,3.127,14.7-.115,29.4-.056,44.107-.056,11.861,0,23.723-.089,35.581.068,2.666.036,3.282-.747,3.2-3.292-.192-6.048-.157-12.108-.013-18.159.055-2.31-.408-3.364-3-3.152-2.945.241-5.944-.148-8.886.114-2.8.25-3.726-.631-3.434-3.439.237-2.283.525-4.923-2.228-6.117-2.8-1.215-4.268,1.027-5.916,2.645a6.581,6.581,0,0,0-.78.79c-1.138,1.581-2.086,1.449-3.442.05-4.9-5.059-9.934-9.984-14.9-14.973-1.567-1.574-3.969-2.99-4.388-4.842s2.47-3.036,3.771-4.634a3.748,3.748,0,0,0,.628-4.141,3.334,3.334,0,0,0-3.261-2.017,24.246,24.246,0,0,0-3.333,0c-2.231.285-2.995-.457-2.943-2.819.16-7.162.058-14.33.058-21.5,0-5.962,0-5.991,5.9-6.436,1.6-.12,2.961-.542,3.6-2.1a3.765,3.765,0,0,0-.958-4.4,19.845,19.845,0,0,0-1.844-1.821c-2.029-1.5-2.089-2.694-.119-4.558,5.471-5.179,10.707-10.606,16.036-15.936,3.432-3.431,3.468-3.468,6.793-.129,1.474,1.48,2.953,2.763,5.161,1.778,2.007-.9,2.287-2.735,2.229-4.685a18.769,18.769,0,0,0-.019-2.221c-.329-2.194.689-2.709,2.708-2.616,3.206.148,6.431-.1,9.633.087,2.238.131,3.055-.471,2.942-2.834a116.031,116.031,0,0,1,.007-12.225c.157-2.7-.5-3.525-3.376-3.491-14.206.172-28.415.079-42.624.079m58.347,73.53c0-27.311-.044-54.622.062-81.933.012-2.959-.6-4.153-3.82-4.006-5.673.258-11.367.136-17.05.042-2.337-.039-3.853,0-3.865,3.2-.013,3.255,1.583,3.274,3.88,3.151,1.848-.1,3.707-.021,5.56-.019,7.4.006,8.927,1.513,8.927,8.841q0,70.441,0,140.881c0,8.054-1.33,9.362-9.555,9.354q-49.306-.052-98.611-.121c-.692,0-1.407-.324-1.876.6a3.869,3.869,0,0,0,3.572,5.808c36.332,0,72.664-.039,109,.076,3.151.01,3.858-.915,3.845-3.937-.115-27.31-.068-54.622-.067-81.933M67.433,110.293v.056c-4.694,0-9.393-.13-14.082.029-8.372.282-15.136,3.943-20.6,10.2a8.3,8.3,0,0,0-2.2,6.022c.163,6.791.338,13.6-.048,20.377-.233,4.073,1.414,6.221,4.674,8.217,7.306,4.475,15.312,4.071,23.337,4.153,2.4.024,2.905-.853,2.857-3.016-.121-5.433-.04-10.871-.04-16.307,0-5.581-.073-5.749-5.193-3.508-2.568,1.124-3.221.168-4.231-1.958-1.211-2.551-.021-3.2,1.979-3.876,4.509-1.52,9.59-3.263,11.195-7.82,2.438-6.924,7.207-7.09,12.884-6.483a9.7,9.7,0,0,0,2.219-.039,6.159,6.159,0,0,0,4.578-2.8c.557-.844,1.1-1.8.6-2.74-.477-.883-1.555-.488-2.368-.492-5.189-.03-10.378-.016-15.567-.016M171.476,55.228c0-6.332,0-6.231-6.085-6.309-2.055-.026-2.881.486-3.468,2.576-1.893,6.747-8.5,9.342-14.616,5.715-1.769-1.049-2.527-.562-3.667.616-3.094,3.193-6.23,6.347-9.439,9.423-1.163,1.114-1.311,1.817-.4,3.351,3.741,6.314,1.127,12.728-5.949,14.775-1.713.5-2.416,1.121-2.36,2.979.136,4.442.118,8.893.007,13.336-.042,1.691.588,2.279,2.17,2.74,7.345,2.139,9.872,8.348,6.039,14.971-.806,1.391-.7,2.045.355,3.065q5.052,4.9,9.949,9.961c1.055,1.094,1.779,1.052,3.11.3,6.592-3.727,12.811-1.2,14.971,6.155.5,1.7,1.152,2.007,2.731,2.043,6.654.151,6.652.208,6.652-6.468a11.308,11.308,0,0,1,.014-1.85c.524-3.108-.588-4.113-3.885-4.366-16.479-1.267-29.657-16.192-29.688-33.216-.03-17.212,13.194-32.162,29.862-33.438,3.054-.234,4.21-1.16,3.716-4.138a13.748,13.748,0,0,1-.018-2.219m-97.866,48.8A33.6,33.6,0,1,0,39.945,70.5,33.5,33.5,0,0,0,73.61,104.029m51.779-85.595h18.9c9.014,0,8.9,0,8.892-9.19,0-2.7-.948-3.248-3.423-3.23-14.206.1-28.413.05-42.62.05-9.42,0-9.328,0-9.205,9.569.03,2.376.81,2.876,3,2.846,8.151-.112,16.306-.045,24.459-.045M24.533,137.569c0-4.2-.074-8.395.033-12.588.047-1.849-.407-2.64-2.444-2.577-4.562.14-9.132.106-13.7.013-1.779-.036-2.346.6-2.333,2.354q.1,12.958,0,25.918c-.013,1.736.541,2.434,2.329,2.4,4.565-.079,9.135-.114,13.7.016,2.018.058,2.5-.721,2.45-2.581-.111-4.317-.036-8.638-.035-12.958m119.423-42.5A27.635,27.635,0,0,0,167.639,122.2c1.25.168,3.514,1.4,3.741-1.18.172-1.951,1.287-4.362-2.691-4.969-11.164-1.706-18.6-10.468-18.625-21.08-.03-10.6,7.461-19.493,18.549-21.14,3.917-.582,2.923-2.876,2.795-4.906-.177-2.779-2.476-1.417-3.686-1.264A27.592,27.592,0,0,0,143.956,95.07M73.2,122.579c-1.569,3.581-5.775,5.417-5.743,9.894q.118,17.236-.009,34.473c-.024,3.1,1.079,4.687,4.312,4.48a22.938,22.938,0,0,1,3.334,0c3.407.278,4.761-1.345,4.512-4.632a23.835,23.835,0,0,1,0-3.7c.208-2.573-.2-4.5-2.717-6.191-3.6-2.421-4.323-6.887-2.278-10.936.733-1.451,1-2.469.069-3.979a8.163,8.163,0,0,1-.036-8.476c.482-.919,1.417-1.664.469-2.951-1.7-2.3-1.788-5.032-1.915-7.981m98.273-27.795c0-4.192-.092-8.386.039-12.573.066-2.116-.427-2.734-2.685-2.329a15.294,15.294,0,0,0-.077,30.065c2.088.377,2.85.062,2.768-2.222-.156-4.308-.045-8.627-.045-12.941m-91.692-82.6c-3.333,0-6.667.067-10-.027-1.76-.05-2.389.58-2.349,2.354.1,4.194.027,8.392.03,12.589,0,4.455-.021,4.256,4.231,3.624,2.743-.408,1.765-2.242,1.791-3.583.138-7.019,1.767-8.681,8.793-8.689,2.469,0,4.946-.132,7.4.033,2.6.174,2.324-1.494,2.29-3.114-.033-1.546.463-3.323-2.2-3.217-3.327.133-6.664.032-10,.032m5.9,140.926v-.012c.856,0,1.712.019,2.567,0,2.1-.057,3.7-.922,3.606-3.207-.088-2.02-1.585-2.9-3.537-2.938-1.222-.025-2.447.028-3.667-.016-2.352-.085-4.806.138-4.86,3.075-.054,3.036,2.487,3.131,4.791,3.1.367,0,.733,0,1.1,0m-.024-12.227h2.569c2.15,0,3.682-.965,3.632-3.189-.046-2.029-1.53-2.907-3.522-2.891-1.468.013-2.937.042-4.4-.012-2.181-.08-4.143.43-4.159,2.963-.016,2.447,1.793,3.242,4.049,3.134.61-.029,1.223,0,1.834-.006m-.108-12.308c.856,0,1.711,0,2.567,0,2.091.005,3.767-.781,3.738-3.057-.03-2.23-1.67-3.075-3.774-3.068-1.589.006-3.178-.013-4.766.007-2.165.027-3.631,1.09-3.547,3.284.078,2.043,1.616,2.854,3.583,2.831.733-.008,1.466,0,2.2,0" transform="translate(0 0)" fill="#050404"/>
    <path id="Trazado_725936" data-name="Trazado 725936" d="M29.6,18.555c-6.29,0-12.584-.132-18.868.062-2.725.084-2.588-1.371-2.592-3.226s-.1-3.253,2.593-3.226q19.054.2,38.109,0c2.987-.03,2.23,1.822,2.312,3.41.086,1.655.267,3.1-2.315,3.034-6.409-.17-12.825-.056-19.238-.056" transform="translate(-2.101 -3.138)" fill="#151515"/>
    <path id="Trazado_725937" data-name="Trazado 725937" d="M26.656,28.9c5.184,0,10.375.158,15.549-.066,2.634-.114,2.964.957,2.951,3.185-.012,2.092-.288,3.037-2.765,3q-15.734-.224-31.473,0c-2.462.034-2.769-.893-2.783-3-.015-2.249.356-3.292,2.971-3.181,5.174.218,10.365.065,15.549.065" transform="translate(-2.099 -7.435)" fill="#050404"/>
    <path id="Trazado_725938" data-name="Trazado 725938" d="M23.384,51.576c-4.187,0-8.382-.153-12.558.056-2.577.129-2.793-1.117-2.688-3.12.093-1.74-.309-3.369,2.488-3.321q12.927.222,25.86,0c2.78-.05,2.451,1.543,2.525,3.31.083,1.983-.129,3.251-2.7,3.131-4.3-.2-8.617-.055-12.928-.055" transform="translate(-2.094 -11.657)" fill="#151515"/>
    <path id="Trazado_725939" data-name="Trazado 725939" d="M22.634,233.994c.8,3.1-.93,3.191-3.189,3.29-2.493.108-3.037-.789-3.06-3.131-.024-2.5.611-3.384,3.239-3.31,2.479.069,3.835.531,3.01,3.152" transform="translate(-4.226 -59.545)" fill="#151515"/>
    <path id="Trazado_725940" data-name="Trazado 725940" d="M52.9,231c3.341-.813,2.7,1.5,2.928,3.477.349,3-1.506,2.589-3.409,2.786-2.739.283-2.867-1.109-2.967-3.267-.128-2.751.92-3.593,3.448-3" transform="translate(-12.753 -59.539)" fill="#151515"/>
    <path id="Trazado_725941" data-name="Trazado 725941" d="M33.067,233.974c-.781-2.889.847-2.983,3.142-3.146,2.984-.211,2.885,1.305,3,3.465.138,2.538-.864,2.954-3.128,2.989-2.558.04-3.691-.666-3.016-3.309" transform="translate(-8.479 -59.537)" fill="#151515"/>
    <path id="Trazado_725942" data-name="Trazado 725942" d="M11.155,67.861C7.7,68.7,8.332,66.42,8.093,64.447c-.387-3.186,1.719-2.4,3.465-2.636,2.7-.371,2.855,1.011,2.968,3.177.149,2.868-1.085,3.471-3.37,2.872" transform="translate(-2.076 -15.929)" fill="#151515"/>
    <path id="Trazado_725943" data-name="Trazado 725943" d="M27.553,67.875c-2.918.773-2.534-1.181-2.756-3.088-.346-2.982,1.273-2.812,3.416-2.987,2.844-.234,2.616,1.276,2.789,3.241.253,2.884-1.123,3.3-3.448,2.835" transform="translate(-6.384 -15.935)" fill="#050404"/>
    <path id="Trazado_725944" data-name="Trazado 725944" d="M153.2,32.947c14.209,0,28.418.093,42.624-.079,2.872-.035,3.533.795,3.377,3.491a115.829,115.829,0,0,0-.008,12.225c.113,2.363-.7,2.966-2.942,2.834-3.2-.188-6.427.061-9.633-.087-2.019-.093-3.036.421-2.707,2.616a18.939,18.939,0,0,1,.018,2.222c.058,1.949-.223,3.788-2.229,4.684-2.208.985-3.687-.3-5.161-1.778-3.325-3.338-3.361-3.3-6.793.129-5.329,5.329-10.565,10.757-16.036,15.936-1.969,1.864-1.909,3.054.119,4.558a19.845,19.845,0,0,1,1.844,1.821,3.767,3.767,0,0,1,.959,4.4c-.637,1.56-2,1.981-3.6,2.1-5.9.446-5.9.475-5.9,6.436,0,7.166.1,14.334-.058,21.5-.052,2.362.712,3.1,2.944,2.819a24.351,24.351,0,0,1,3.332,0,3.335,3.335,0,0,1,3.261,2.018,3.748,3.748,0,0,1-.628,4.141c-1.3,1.6-4.188,2.792-3.771,4.634s2.821,3.268,4.388,4.841c4.97,4.99,10.005,9.915,14.9,14.973,1.355,1.4,2.3,1.532,3.441-.049a6.64,6.64,0,0,1,.78-.79c1.649-1.618,3.114-3.861,5.916-2.645,2.753,1.194,2.465,3.833,2.228,6.117-.292,2.808.637,3.689,3.434,3.439,2.942-.263,5.941.126,8.886-.114,2.59-.212,3.053.842,3,3.151-.144,6.051-.179,12.111.013,18.159.081,2.545-.535,3.328-3.2,3.292-11.859-.157-23.72-.068-35.581-.068-14.7,0-29.406-.059-44.107.056-2.512.019-3.731-.37-2.819-3.127a5.01,5.01,0,0,0,.033-1.476c.016-2.223-.562-4.684.2-6.608.876-2.2,3.707-.744,5.62-1.441a9.147,9.147,0,0,0,5.263-12.941,3.422,3.422,0,0,1-.008-3.9,8.085,8.085,0,0,0-.05-8.473,3.123,3.123,0,0,1-.085-3.572c2.677-5.1.947-10.215-4.26-12.676-1.679-.793-2.311-1.319-1.354-3.146.672-1.283,1.314-3.006.661-4.293-1.644-3.239.25-4.239,2.62-5.689,13.945-8.534,20.891-24.164,18.289-40.668-2.383-15.121-14.457-28.03-30.089-31.575-3.706-.84-2.963-3.061-3.054-5.387-.125-3.177,2.288-1.951,3.665-1.959,14.084-.082,28.169-.05,42.254-.05M141.22,173.7c2.365.795,2.976-.269,2.99-2.717.014-2.421-.416-3.469-3.137-3.33-2.19.113-3.261.376-3.142,2.954.105,2.294.229,3.93,3.289,3.092m15.009-2.813c.488-2.306-.152-3.321-2.757-3.233-2.3.078-3.571.267-3.4,3.093.128,2.163.318,3.323,2.934,3.157,2.182-.138,4.045-.01,3.227-3.017m9.228,2.867c2.252.462,3.361-.045,3.245-2.711-.1-2.276-.212-3.6-3.069-3.384-2.083.161-3.385.19-3.2,2.887.152,2.188.041,4.026,3.022,3.209" transform="translate(-27.672 -8.453)" fill="#e4e7ea"/>
    <path id="Trazado_725945" data-name="Trazado 725945" d="M207.176,102.221c0,27.311-.047,54.622.068,81.933.013,3.022-.695,3.946-3.846,3.936-36.331-.114-72.664-.072-109-.076a3.868,3.868,0,0,1-3.572-5.808c.469-.921,1.183-.6,1.875-.6q49.306.065,98.612.12c8.225.009,9.555-1.3,9.555-9.354q0-70.44,0-140.88c0-7.328-1.532-8.836-8.928-8.842-1.854,0-3.712-.079-5.559.02-2.3.122-3.893.1-3.881-3.151.012-3.2,1.528-3.241,3.865-3.2,5.683.095,11.377.217,17.05-.042,3.217-.146,3.832,1.047,3.821,4.006-.105,27.311-.062,54.622-.062,81.933" transform="translate(-23.3 -4.197)" fill="#be916c"/>
    <path id="Trazado_725946" data-name="Trazado 725946" d="M78.031,148.609c5.189,0,10.378-.015,15.566.016.814,0,1.891-.391,2.369.493.506.938-.042,1.9-.6,2.74a6.159,6.159,0,0,1-4.578,2.8,9.7,9.7,0,0,1-2.219.039c-5.678-.607-10.446-.442-12.884,6.483-1.605,4.558-6.685,6.3-11.195,7.82-2,.675-3.19,1.325-1.979,3.876,1.01,2.126,1.663,3.082,4.231,1.958,5.119-2.241,5.193-2.073,5.193,3.508,0,5.436-.081,10.873.04,16.307.048,2.163-.453,3.04-2.857,3.016-8.025-.082-16.031.322-23.337-4.153-3.26-2-4.907-4.143-4.675-8.217.387-6.773.211-13.586.049-20.377a8.3,8.3,0,0,1,2.2-6.022c5.462-6.258,12.226-9.918,20.6-10.2,4.689-.159,9.388-.029,14.082-.029v-.056" transform="translate(-10.598 -38.316)" fill="#ebccb0"/>
    <path id="Trazado_725947" data-name="Trazado 725947" d="M215.1,72.233a13.757,13.757,0,0,0,.018,2.22c.493,2.977-.663,3.9-3.717,4.137-16.667,1.276-29.893,16.226-29.862,33.439.03,17.025,13.208,31.949,29.687,33.216,3.3.254,4.409,1.259,3.885,4.366a11.308,11.308,0,0,0-.015,1.85c0,6.676,0,6.62-6.652,6.468-1.58-.036-2.233-.342-2.732-2.043-2.159-7.353-8.378-9.882-14.971-6.155-1.33.752-2.054.794-3.11-.3q-4.887-5.064-9.949-9.961c-1.051-1.019-1.161-1.673-.355-3.065,3.834-6.622,1.307-12.831-6.038-14.971-1.581-.46-2.212-1.048-2.17-2.739.111-4.443.129-8.895-.007-13.337-.057-1.857.646-2.482,2.359-2.978,7.077-2.047,9.691-8.462,5.949-14.775-.909-1.535-.761-2.238.4-3.352,3.21-3.075,6.346-6.23,9.44-9.423,1.141-1.178,1.9-1.665,3.666-.616,6.117,3.627,12.724,1.031,14.617-5.715.586-2.091,1.414-2.6,3.468-2.576C215.1,66,215.1,65.9,215.1,72.233" transform="translate(-43.622 -17.005)" fill="#f8c228"/>
    <path id="Trazado_725948" data-name="Trazado 725948" d="M87.5,116.83a33.6,33.6,0,1,1,33.567-33.668A33.429,33.429,0,0,1,87.5,116.83m27.418-33.646a27.506,27.506,0,1,0-27.44,27.557,27.336,27.336,0,0,0,27.44-27.557" transform="translate(-13.886 -12.8)" fill="#a5adb7"/>
    <path id="Trazado_725949" data-name="Trazado 725949" d="M159.424,20.525c-8.154,0-16.307-.068-24.459.045-2.186.03-2.965-.469-3-2.846-.122-9.571-.215-9.569,9.206-9.569,14.207,0,28.413.053,42.619-.05,2.475-.018,3.42.529,3.424,3.23.012,9.19.122,9.19-8.893,9.19h-18.9" transform="translate(-34.035 -2.091)" fill="#aed57b"/>
    <path id="Trazado_725950" data-name="Trazado 725950" d="M26.65,180.118c0,4.319-.075,8.641.035,12.958.047,1.86-.432,2.639-2.45,2.582-4.562-.131-9.132-.1-13.7-.016-1.787.03-2.34-.666-2.328-2.4q.092-12.957,0-25.917c-.013-1.749.554-2.39,2.334-2.354,4.564.092,9.135.127,13.7-.014,2.038-.062,2.493.728,2.445,2.578-.108,4.193-.034,8.391-.034,12.587" transform="translate(-2.117 -42.549)" fill="#fa806c"/>
    <path id="Trazado_725951" data-name="Trazado 725951" d="M194,118.426a27.591,27.591,0,0,1,23.765-27.414c1.21-.154,3.51-1.516,3.686,1.264.129,2.03,1.123,4.324-2.794,4.906-11.088,1.647-18.579,10.544-18.549,21.14.03,10.613,7.461,19.375,18.625,21.081,3.977.608,2.862,3.019,2.691,4.969-.227,2.579-2.493,1.348-3.741,1.18A27.634,27.634,0,0,1,194,118.426" transform="translate(-50.042 -23.356)" fill="#f3cf6c"/>
    <path id="Trazado_725952" data-name="Trazado 725952" d="M96.64,165.19c.127,2.95.217,5.677,1.915,7.981.948,1.286.013,2.032-.469,2.951a8.163,8.163,0,0,0,.036,8.476c.928,1.51.664,2.527-.069,3.979-2.045,4.049-1.322,8.515,2.278,10.936,2.513,1.689,2.924,3.617,2.717,6.191a23.835,23.835,0,0,0,0,3.7c.249,3.287-1.1,4.909-4.512,4.632a23.042,23.042,0,0,0-3.334,0c-3.233.207-4.336-1.379-4.312-4.48q.132-17.236.009-34.473c-.031-4.477,4.175-6.313,5.743-9.894" transform="translate(-23.444 -42.611)" fill="#939ca7"/>
    <path id="Trazado_725953" data-name="Trazado 725953" d="M225.8,122.512c0,4.314-.111,8.633.045,12.942.082,2.283-.68,2.6-2.768,2.222a15.294,15.294,0,0,1,.077-30.065c2.257-.405,2.75.212,2.684,2.329-.131,4.187-.039,8.381-.039,12.573" transform="translate(-54.335 -27.728)" fill="#e4e7ea"/>
    <path id="Trazado_725954" data-name="Trazado 725954" d="M103.218,16.4c3.333,0,6.669.1,10-.032,2.66-.105,2.165,1.671,2.2,3.217.034,1.62.312,3.29-2.29,3.115-2.458-.165-4.935-.036-7.4-.033-7.026.008-8.655,1.67-8.793,8.689-.027,1.342.952,3.175-1.791,3.583-4.253.633-4.227.832-4.231-3.624,0-4.2.065-8.395-.03-12.589-.04-1.774.589-2.4,2.349-2.354,3.33.094,6.664.027,10,.027" transform="translate(-23.44 -4.221)" fill="#c3956f"/>
    <path id="Trazado_725955" data-name="Trazado 725955" d="M113.407,204.176c-.367,0-.734,0-1.1,0-2.3.029-4.846-.066-4.791-3.1.053-2.937,2.507-3.16,4.86-3.075,1.221.044,2.445-.009,3.666.016,1.953.041,3.45.918,3.537,2.937.1,2.286-1.5,3.151-3.606,3.208-.855.023-1.711,0-2.567,0Z" transform="translate(-27.733 -51.07)" fill="#ebccb0"/>
    <path id="Trazado_725956" data-name="Trazado 725956" d="M113.378,187.73c-.611,0-1.224-.024-1.834.005-2.257.107-4.066-.688-4.05-3.134.017-2.533,1.979-3.044,4.16-2.963,1.466.053,2.936.024,4.4.012,1.992-.016,3.477.862,3.523,2.891.05,2.223-1.482,3.189-3.632,3.189h-2.569" transform="translate(-27.728 -46.852)" fill="#ebccb0"/>
    <path id="Trazado_725957" data-name="Trazado 725957" d="M113.266,171.131c-.733,0-1.466-.009-2.2,0-1.967.022-3.505-.788-3.583-2.831-.084-2.194,1.382-3.257,3.547-3.284,1.588-.019,3.177,0,4.766-.007,2.1-.007,3.744.838,3.774,3.068.03,2.276-1.647,3.062-3.738,3.057-.856,0-1.711,0-2.567,0" transform="translate(-27.724 -42.564)" fill="#ebccb0"/>
    <path id="Trazado_725958" data-name="Trazado 725958" d="M151.873,220.587c-3.061.838-3.184-.8-3.29-3.092-.118-2.579.952-2.841,3.142-2.954,2.722-.14,3.152.909,3.138,3.33-.014,2.448-.626,3.511-2.99,2.717" transform="translate(-38.325 -55.338)" fill="#050404"/>
    <path id="Trazado_725959" data-name="Trazado 725959" d="M171.1,217.776c.818,3.006-1.045,2.879-3.227,3.017-2.616.165-2.806-.994-2.934-3.158-.166-2.826,1.1-3.015,3.4-3.092,2.6-.088,3.244.927,2.757,3.233" transform="translate(-42.542 -55.34)" fill="#040506"/>
    <path id="Trazado_725960" data-name="Trazado 725960" d="M184.625,220.639c-2.982.817-2.87-1.021-3.022-3.209-.187-2.7,1.115-2.726,3.2-2.887,2.857-.22,2.97,1.109,3.069,3.384.116,2.667-.993,3.173-3.245,2.711" transform="translate(-46.84 -55.335)" fill="#050404"/>
    <path id="Trazado_725961" data-name="Trazado 725961" d="M117.025,85.309A27.506,27.506,0,1,1,89.49,57.864a27.376,27.376,0,0,1,27.534,27.445m-6.056.314a21.448,21.448,0,1,0-21.7,21.2,21.552,21.552,0,0,0,21.7-21.2" transform="translate(-15.996 -14.926)" fill="#040506"/>
    <path id="Trazado_725962" data-name="Trazado 725962" d="M113.075,87.728a21.447,21.447,0,1,1-21.162-21.7,21.6,21.6,0,0,1,21.162,21.7m-6.962-7.6a32.717,32.717,0,0,0-3.991-3.468c-1.112-.7-1.641.749-2.267,1.364-4.233,4.15-8.463,8.307-12.565,12.585-1.359,1.417-2.211,1.443-3.523,0-.686-.755-1.145-2.384-2.83-1.592C77.781,90.5,77.351,92.832,79.81,95.3c1.307,1.313,2.691,2.558,3.908,3.95,1.176,1.345,2.02,1.673,3.481.166,5.675-5.85,11.5-11.56,17.25-17.332.5-.5.925-1.084,1.664-1.959" transform="translate(-18.103 -17.03)" fill="#67d2f0"/>
    <path id="Trazado_725963" data-name="Trazado 725963" d="M108.91,83.757c-.739.875-1.163,1.456-1.664,1.959C101.49,91.488,95.671,97.2,90,103.048c-1.461,1.507-2.3,1.179-3.481-.166-1.216-1.392-2.6-2.637-3.908-3.95-2.459-2.467-2.03-4.8,1.127-6.286,1.685-.792,2.144.837,2.83,1.592,1.311,1.442,2.164,1.417,3.523,0,4.1-4.278,8.332-8.436,12.565-12.585.626-.614,1.155-2.063,2.267-1.364a32.718,32.718,0,0,1,3.991,3.468" transform="translate(-20.9 -20.662)" fill="#060b0d"/>
  </g>
</svg>
