<svg id="Grupo_984351" data-name="Grupo 984351" xmlns="http://www.w3.org/2000/svg" xmlns:xlink="http://www.w3.org/1999/xlink" width="180.267" height="183.139" viewBox="0 0 180.267 183.139">
  <defs>
    <clipPath id="clip-path">
      <rect id="Rectángulo_345072" data-name="Rectángulo 345072" width="180.267" height="183.139" fill="none"/>
    </clipPath>
  </defs>
  <g id="Grupo_984350" data-name="Grupo 984350" clip-path="url(#clip-path)">
    <path id="Trazado_725883" data-name="Trazado 725883" d="M40.979,176.632c-1.278,6.676-5.8,6.661-10.9,6.444C22.951,182.773,15.8,183,8.206,183c2.26-8.176,4.451-16.1,6.641-24.031,1.581-5.721,3.077-11.466,4.786-17.147.543-1.807.6-2.922-1.174-4.156a14.532,14.532,0,0,1-5.748-8.771C10.588,120,8.6,111.079,6.565,102.165a18.051,18.051,0,0,1,1.5-12.15c.824-1.7.355-2.831-.2-4.5a53.536,53.536,0,0,0-6.4-12.944c-2.855-4.311-1.343-10,2.92-13.459,3.611-2.927,4.83-6.392,4.76-10.885-.106-6.648-.7-13.366.733-19.937A35.471,35.471,0,0,1,47.831.161C65.865,1.891,79.323,16.536,79.925,35.2c.157,4.875.109,9.762.021,14.64a10.28,10.28,0,0,0,3.8,8.425c6.736,5.884,6.837,12.7.339,18.948a3.548,3.548,0,0,0-1.2,2.745,11.062,11.062,0,0,1-1.692,5.745c-1.479,2.277-.455,2.915,1.8,2.907,6.785-.024,13.575.145,20.352-.082,2.795-.093,3.41.817,3.265,3.4-.22,3.916-.006,7.854-.08,11.781a4.39,4.39,0,0,0,2.062,4.365c5.6,3.884,5.68,16.006.139,19.9a4.753,4.753,0,0,0-2.214,4.687c.066,2.833.956,6.564-.47,8.276-1.693,2.033-5.569.62-8.487.661-7.974.113-15.952.124-23.925-.017-2.172-.039-2.8.581-2.944,2.727-.764,11.874-1.777,23.733-2.488,35.61-.145,2.437-.714,3.213-3.232,3.138q-9.633-.286-19.28-.007c-2.794.077-4.636-.226-4.2-3.664a9.3,9.3,0,0,0-.508-2.76m-6.322-72.957c-2.2-6.581-4.175-12.545-6.2-18.493-.386-1.136-.37-2.547-2.476-2.141-9.832,1.9-15.483,9.805-13.416,19.236,1.779,8.119,3.676,16.213,5.613,24.3,1.388,5.788,5.6,9.13,11.551,9.21,5.353.072,10.708.017,16.062.018,7.922,0,7.849,0,7.544-7.983-.1-2.74-1.323-3.884-3.939-3.869-3.212.019-6.436.171-9.634-.045-3.742-.252-7.059.157-9.353,3.583-1.451,2.167-2.524.614-3.561-.5-.967-1.04-2.888-2.061-.667-3.566,3.275-2.221,3.262-5.043,2.008-8.329-.546-1.43-.711-3-1.122-4.489-1.312-4.749-1.787-9.778-6.457-13.059-1.807-1.27.523-3.119,1.15-4.578.709-1.649,1.82-.363,2.586.169a16.286,16.286,0,0,1,6.7,9.365c1.166,4.358,2.4,8.7,3.337,13.113.411,1.931,1.21,2.51,3.1,2.458,4.281-.117,8.711-.716,12.809.154,4.371.927,8.335,1.273,12.683,0,1.736-.51,2.27-.735,2.252-2.462-.071-6.782-.029-13.564-.029-20.346,0-6.688,0-6.684,6.5-6.816.425-.009.972.174,1.249-.683-2.108-2.512-5-4.009-7.992-5.435-2.357-1.123-3.4-.68-4.184,1.961-1.886,6.316-4.146,12.521-6.4,19.206-3.046-4.044-5.812-7.6-8.44-11.264-1.052-1.466-1.675-1.594-2.786-.04-2.619,3.667-5.393,7.224-8.487,11.334M15.973,177.143c5.2,0,10.052-.1,14.893.048a3.6,3.6,0,0,0,4.01-2.527c2.872-6.781,5.925-13.484,8.942-20.2a6.416,6.416,0,0,0,.691-3.441c-.284-2.358.112-3.639,3.108-3.6,3.062.035,2.74,1.682,2.774,3.645.036,2.061-.057,4.086-1.214,5.834-3.613,5.461-3.388,11.386-2.407,17.485.316,1.963.9,2.942,3.112,2.812a78.187,78.187,0,0,1,9.634,0c2.389.155,2.961-.766,3.093-3q.876-14.783,2.111-29.543c.2-2.378-.409-3.082-2.817-3.062-11.305.094-22.612.038-33.918-.036-1.34-.009-2.243.1-2.652,1.605-3.056,11.209-6.163,22.4-9.36,33.985M66.31,32.387a22.612,22.612,0,0,1,4.38.044c2.984.711,3.2-.29,2.627-3A29.764,29.764,0,0,0,45.159,5.9C32.581,5.324,20.28,14.273,16.405,26.822c-1.722,5.577-1.712,5.354,3.861,5.608,8.768.4,16.482-1.757,22.582-8.339,1.335-1.44,2.219-1.187,3.45.1,5.673,5.918,12.624,8.685,20.012,8.2M62.273,46.1c0-1.9-.045-3.807.015-5.707.044-1.361-.238-2.216-1.845-2.414A28.868,28.868,0,0,1,45.9,31.761a1.813,1.813,0,0,0-2.726-.031,28.952,28.952,0,0,1-14.527,6.255c-1.272.162-1.918.628-1.89,2,.086,4.278-.14,8.577.212,12.829.359,4.343,2.384,8.239,6.262,10.259,4.509,2.349,5.984,5.693,5.494,10.444-.171,1.656,3.968,7.078,5.44,7.366a1.587,1.587,0,0,0,1.231-.385c2.527-2.538,5.773-4.57,5.026-9.084-.561-3.385,1.046-5.815,4.171-7.5,5.154-2.786,7.506-7.4,7.675-13.179.045-1.544.006-3.091.009-4.637M88.31,135.8c2.977,0,5.961.119,8.926-.061,1.133-.069,3.257,1.13,3.229-1.358-.021-1.758,1.212-4.091-1.878-4.959-2.726-.766-3.894-3.01-3.943-5.745-.069-3.809-.079-7.622.01-11.43.054-2.279.951-4.486,3.184-5.133,2.777-.806,2.9-2.542,2.726-4.795a26.872,26.872,0,0,1,.006-4.639c.224-2.3-.272-3.348-2.987-3.348s-3.119,1.037-3,3.344c.139,2.72.955,6.31-.41,7.97-1.625,1.977-5.362.631-8.164.623-2.918-.007-6.648,1.364-8.55-.629-1.73-1.813-.35-5.457-.53-8.288a1.488,1.488,0,0,1,0-.357c.443-2.476-.994-2.635-2.923-2.6-1.825.035-3.1-.057-3.038,2.533.184,7.5.055,15,.081,22.5,0,.774-.383,1.755.608,2.239,5.244,2.559,5.738,7.174,5.156,12.149-.2,1.674.3,2.051,1.852,2.006,3.212-.093,6.429-.028,9.644-.028M18.132,50.156c-2.58-.025-2.806-.049-2.949,1.31-.545,5.184-3.231,8.983-7.062,12.333-2.773,2.425-2.838,6.8.219,8.259,3.9,1.859,5.431,3.865,3.993,8.068-.365,1.067.1,3.129,2.107,1.7,4.473-3.189,9.82-4.1,14.766-6.054,1.3-.515,3.219-.275,3.365-2.513.141-2.148-.252-3.7-2.349-5a18.842,18.842,0,0,1-9.179-15.278c-.173-2.447-.993-3.182-2.912-2.818m53.3.013c-1.726-.015-3.264-.39-3.4,2.309a19.281,19.281,0,0,1-9.651,16.088c-1.93,1.187-2.047,2.685-1.863,4.5.189,1.867,1.873,1.68,3,1.865a31.985,31.985,0,0,1,14.94,6.2c.526.413,1.115,1.253,1.787.688a2.738,2.738,0,0,0,.521-1.933,6.792,6.792,0,0,0-.483-2.762c-.932-1.919-.608-2.787,1.581-3.5,5.808-1.893,6.729-6.663,2.1-10.736a16.3,16.3,0,0,1-5.925-10.6c-.217-1.93-.927-2.507-2.6-2.122M64.646,135.8c1.961-.445,4.965,1.22,6.231-2.052,1.209-3.126-.181-5.637-3.475-6.932a8.555,8.555,0,0,1-2.015-1.386c-2.764-2.189-5.256-1.376-5.88,2.14-.347,1.959-.053,4.022-.194,6.029-.118,1.684.448,2.42,2.191,2.221a30.21,30.21,0,0,1,3.142-.019m35.859-17.842c0,1.065-.056,2.134.015,3.194.079,1.168-.6,2.82,1.575,2.841,1.7.017,3.549.034,4.118-1.96a15.567,15.567,0,0,0,.067-7.711c-.5-2.221-2.474-2.216-4.313-2.129-2.228.105-1.287,1.824-1.436,2.929a21.433,21.433,0,0,0-.026,2.836m-48.1-27.1c1.11-3.282,2.146-6.363,3.2-9.438.167-.487.211-1-.312-1.167a1.951,1.951,0,0,0-1.326.147C49,82.873,48.376,86.325,52.407,90.857m-15.531-.192c3.957-4.714,3.957-4.714-.132-8.68a9.59,9.59,0,0,0-1.285-1.2,1.752,1.752,0,0,0-1.241-.316c-.684.189-.755.829-.551,1.436.974,2.9,1.584,5.957,3.21,8.762m51.875,6.792c.459-2.228-.216-3.24-2.711-3.1-2,.111-3.284.139-3.2,2.774.073,2.289.407,3.4,3.063,3.3,2.246-.079,3.4-.557,2.848-2.974m-67.839-55.9c0-1.635.518-3.344-2.071-3.113-1.926.172-3.638.473-3.683,2.8-.047,2.462,1.637,2.976,3.763,3.134,2.681.2,1.885-1.645,1.991-2.821m47.227-.024c.186,1.067-.832,3.02,1.915,2.842,2.106-.136,3.826-.592,3.827-3.066,0-2.328-1.673-2.68-3.613-2.866-2.51-.24-2.187,1.356-2.129,3.09" transform="translate(0 0)" fill="#060605"/>
    <path id="Trazado_725884" data-name="Trazado 725884" d="M216.7,40.295a23.609,23.609,0,1,1-23.468-23.678A23.615,23.615,0,0,1,216.7,40.295m-5.921,0a17.628,17.628,0,1,0-17.734,17.518A17.54,17.54,0,0,0,210.783,40.3" transform="translate(-48.308 -4.736)" fill="#070706"/>
    <path id="Trazado_725885" data-name="Trazado 725885" d="M216.7,213.608a23.609,23.609,0,1,1-23.479-23.669A23.556,23.556,0,0,1,216.7,213.608m-5.922-.2a17.627,17.627,0,1,0-17.518,17.858,17.717,17.717,0,0,0,17.518-17.858" transform="translate(-48.308 -54.138)" fill="#070706"/>
    <path id="Trazado_725886" data-name="Trazado 725886" d="M209.724,150.376a23.6,23.6,0,0,1-.064-47.206,23.6,23.6,0,1,1,.064,47.206m-.187-5.868a17.661,17.661,0,1,0-17.567-17.819,17.8,17.8,0,0,0,17.567,17.819" transform="translate(-53.05 -29.406)" fill="#070706"/>
    <path id="Trazado_725887" data-name="Trazado 725887" d="M177.264,94.31c0,3.205-.1,6.414.036,9.614.079,1.908-.627,2.518-2.464,2.41a43.228,43.228,0,0,0-6.4.012c-2.439.221-3.338-.525-3.244-3.105.08-2.172.413-3.465,2.906-3.034,2.449.424,3.311-.489,3.168-3.051-.225-4.023.1-8.076-.115-12.1-.137-2.623,1.319-2.489,3.1-2.49s3.264-.133,3.072,2.49c-.225,3.07-.053,6.169-.053,9.255" transform="translate(-47.081 -23.533)" fill="#151515"/>
    <path id="Trazado_725888" data-name="Trazado 725888" d="M177.25,168.825c0,3.21-.137,6.428.042,9.627.149,2.662-1.609,2.073-3.046,2.075s-3.17.581-3.074-2.058c.153-4.155-.076-8.325.085-12.48.09-2.32-.344-3.713-3.024-3.216s-2.942-.894-3.057-3.194c-.138-2.778,1.263-2.7,3.216-2.706,8.859-.027,8.859-.061,8.859,8.741v3.21" transform="translate(-47.077 -44.713)" fill="#0f1010"/>
    <path id="Trazado_725889" data-name="Trazado 725889" d="M164.582,137.96a29.082,29.082,0,0,0-4.246.036c-2.72.4-3.365-.673-3.285-3.284.067-2.179.594-2.849,2.787-2.719a86.363,86.363,0,0,0,9.914.006c2.482-.138,2.272,1.358,2.209,2.929-.058,1.438.54,3.252-2.068,3.057-1.761-.132-3.541-.025-5.312-.025" transform="translate(-44.762 -37.618)" fill="#070706"/>
    <path id="Trazado_725890" data-name="Trazado 725890" d="M39.5,136.325c3.094-4.11,5.868-7.667,8.487-11.334,1.11-1.554,1.733-1.426,2.786.04,2.628,3.659,5.394,7.219,8.44,11.264,2.256-6.684,4.515-12.89,6.4-19.206.789-2.641,1.827-3.084,4.185-1.961,2.993,1.426,5.884,2.923,7.992,5.435-.278.857-.824.674-1.25.683-6.5.132-6.5.128-6.5,6.816,0,6.782-.042,13.564.029,20.346.019,1.727-.515,1.952-2.252,2.462-4.348,1.277-8.312.932-12.682,0-4.1-.87-8.53-.272-12.809-.155-1.888.052-2.686-.526-3.1-2.457-.939-4.409-2.171-8.756-3.337-13.113a16.287,16.287,0,0,0-6.7-9.365c-.766-.532-1.877-1.818-2.585-.169-.627,1.459-2.958,3.308-1.15,4.578,4.67,3.281,5.145,8.31,6.457,13.059.411,1.487.576,3.058,1.123,4.489,1.254,3.286,1.267,6.108-2.008,8.329-2.22,1.505-.3,2.526.667,3.566,1.038,1.116,2.111,2.669,3.561.5,2.3-3.426,5.611-3.836,9.353-3.583,3.2.216,6.423.064,9.635.045,2.617-.016,3.834,1.129,3.939,3.869.3,7.986.378,7.983-7.544,7.983-5.354,0-10.709.055-16.063-.017-5.946-.08-10.163-3.422-11.55-9.21-1.938-8.083-3.835-16.177-5.614-24.3-2.066-9.43,3.585-17.34,13.416-19.236,2.106-.406,2.089,1,2.475,2.141,2.021,5.949,4,11.912,6.2,18.493" transform="translate(-4.842 -32.65)" fill="#b0d87c"/>
    <path id="Trazado_725891" data-name="Trazado 725891" d="M22.339,233.576c3.2-11.581,6.3-22.776,9.36-33.985.41-1.5,1.313-1.614,2.652-1.605,11.306.074,22.612.13,33.918.036,2.408-.02,3.016.684,2.817,3.062q-1.238,14.757-2.11,29.543c-.132,2.234-.7,3.155-3.094,3a78.049,78.049,0,0,0-9.634,0c-2.216.131-2.8-.848-3.112-2.811-.981-6.1-1.205-12.024,2.408-17.485,1.156-1.748,1.25-3.774,1.213-5.834-.034-1.963.287-3.61-2.774-3.646-3-.034-3.392,1.246-3.108,3.6a6.412,6.412,0,0,1-.691,3.442c-3.017,6.718-6.07,13.422-8.941,20.2a3.6,3.6,0,0,1-4.01,2.527c-4.841-.149-9.69-.047-14.893-.047" transform="translate(-6.367 -56.431)" fill="#ce9d6a"/>
    <path id="Trazado_725892" data-name="Trazado 725892" d="M72.448,34.73c-7.388.488-14.339-2.28-20.012-8.2-1.231-1.285-2.116-1.538-3.45-.1-6.1,6.583-13.815,8.739-22.582,8.339-5.573-.254-5.583-.031-3.861-5.608C26.418,16.616,38.719,7.668,51.3,8.248A29.766,29.766,0,0,1,79.455,31.771c.576,2.713.356,3.714-2.627,3a22.621,22.621,0,0,0-4.381-.044" transform="translate(-6.138 -2.343)" fill="#636b76"/>
    <path id="Trazado_725893" data-name="Trazado 725893" d="M72.936,58.509c0,1.546.037,3.092-.007,4.637-.168,5.78-2.521,10.393-7.675,13.178-3.124,1.689-4.732,4.119-4.17,7.5.748,4.514-2.5,6.546-5.026,9.084a1.589,1.589,0,0,1-1.232.385c-1.471-.287-5.61-5.71-5.439-7.366.489-4.751-.985-8.1-5.494-10.444-3.878-2.02-5.9-5.916-6.263-10.259-.352-4.253-.126-8.552-.212-12.829-.028-1.376.618-1.842,1.89-2.005A28.942,28.942,0,0,0,53.835,44.14a1.814,1.814,0,0,1,2.727.031,28.859,28.859,0,0,0,14.546,6.217c1.606.2,1.888,1.054,1.845,2.414-.061,1.9-.015,3.8-.016,5.707M55.124,74.5c4.2-.215,7.769-1.8,10.228-5.386.531-.774,2.158-1.962.175-2.72-1.487-.57-2.747-2.981-4.84-.887-4.067,4.067-6.72,4.029-11.067-.084-2.129-2.015-3.387.436-4.86,1.052-1.932.808-.182,1.975.335,2.728,2.382,3.464,5.855,5.015,10.029,5.3" transform="translate(-10.665 -12.409)" fill="#ebccb0"/>
    <path id="Trazado_725894" data-name="Trazado 725894" d="M116.6,173.408c-3.215,0-6.431-.065-9.644.028-1.551.044-2.048-.332-1.852-2.006.582-4.975.087-9.59-5.156-12.149-.992-.484-.606-1.465-.609-2.239-.026-7.5.1-15.005-.08-22.5-.064-2.59,1.212-2.5,3.038-2.533,1.929-.038,3.366.122,2.923,2.6a1.526,1.526,0,0,0,0,.357c.179,2.831-1.2,6.475.531,8.288,1.9,1.993,5.632.622,8.55.629,2.8.007,6.539,1.353,8.165-.623,1.365-1.66.55-5.249.41-7.97-.118-2.307.287-3.344,3-3.344s3.212,1.051,2.987,3.348a26.874,26.874,0,0,0-.006,4.639c.172,2.253.051,3.989-2.726,4.795-2.234.648-3.132,2.854-3.184,5.134-.089,3.808-.079,7.62-.011,11.43.049,2.735,1.218,4.979,3.944,5.745,3.09.868,1.857,3.2,1.878,4.959.029,2.487-2.1,1.289-3.228,1.358-2.966.18-5.95.061-8.926.061" transform="translate(-28.291 -37.607)" fill="#e2e5e9"/>
    <path id="Trazado_725895" data-name="Trazado 725895" d="M20.542,70.116c1.919-.363,2.738.371,2.912,2.818a18.843,18.843,0,0,0,9.178,15.278c2.1,1.306,2.49,2.855,2.349,5-.146,2.238-2.062,2-3.365,2.513-4.946,1.953-10.293,2.866-14.766,6.054-2.01,1.432-2.472-.629-2.108-1.7,1.438-4.2-.092-6.21-3.992-8.068-3.058-1.457-2.994-5.833-.219-8.259,3.832-3.35,6.517-7.149,7.062-12.333.143-1.359.368-1.335,2.949-1.31" transform="translate(-2.409 -19.96)" fill="#636b76"/>
    <path id="Trazado_725896" data-name="Trazado 725896" d="M93.94,70.124c1.67-.385,2.38.192,2.6,2.122a16.3,16.3,0,0,0,5.926,10.6c4.633,4.074,3.713,8.843-2.1,10.736-2.19.714-2.512,1.582-1.581,3.5a6.8,6.8,0,0,1,.483,2.763,2.736,2.736,0,0,1-.521,1.932c-.673.566-1.26-.275-1.787-.688a31.988,31.988,0,0,0-14.94-6.2c-1.127-.184-2.811,0-3-1.864-.184-1.818-.066-3.316,1.863-4.5a19.281,19.281,0,0,0,9.651-16.088c.14-2.7,1.677-2.324,3.4-2.309" transform="translate(-22.505 -19.955)" fill="#636b76"/>
    <path id="Trazado_725897" data-name="Trazado 725897" d="M88.286,185.323a30.014,30.014,0,0,0-3.142.019c-1.744.2-2.309-.537-2.191-2.221.141-2.006-.153-4.07.194-6.029.623-3.516,3.116-4.328,5.879-2.139a8.562,8.562,0,0,0,2.016,1.386c3.293,1.3,4.684,3.807,3.475,6.932-1.266,3.272-4.271,1.607-6.231,2.052" transform="translate(-23.64 -49.521)" fill="#ebccb0"/>
    <path id="Trazado_725898" data-name="Trazado 725898" d="M140.554,162.676a21.433,21.433,0,0,1,.026-2.836c.149-1.1-.792-2.823,1.436-2.929,1.84-.087,3.809-.092,4.313,2.129a15.564,15.564,0,0,1-.067,7.71c-.568,1.994-2.421,1.978-4.118,1.96-2.176-.021-1.5-1.674-1.575-2.841-.072-1.06-.015-2.128-.015-3.194" transform="translate(-40.048 -44.716)" fill="#dbbea4"/>
    <path id="Trazado_725899" data-name="Trazado 725899" d="M72.245,122.828c-4.031-4.532-3.407-7.984,1.561-10.459a1.96,1.96,0,0,1,1.326-.147c.523.164.478.681.312,1.168-1.052,3.075-2.088,6.155-3.2,9.438" transform="translate(-19.838 -31.97)" fill="#94c460"/>
    <path id="Trazado_725900" data-name="Trazado 725900" d="M50.258,122.732c-1.626-2.8-2.236-5.857-3.21-8.762-.2-.608-.133-1.246.551-1.436a1.754,1.754,0,0,1,1.241.316,9.637,9.637,0,0,1,1.285,1.2c4.089,3.966,4.089,3.966.132,8.68" transform="translate(-13.381 -32.067)" fill="#94c460"/>
    <path id="Trazado_725901" data-name="Trazado 725901" d="M121.774,135.067c.546,2.417-.6,2.894-2.848,2.974-2.656.094-2.99-1.012-3.063-3.3-.084-2.635,1.2-2.663,3.2-2.774,2.5-.139,3.169.873,2.711,3.1" transform="translate(-33.023 -37.61)" fill="#ce9d6a"/>
    <path id="Trazado_725902" data-name="Trazado 725902" d="M26.954,56.87c-.106,1.176.689,3.019-1.991,2.821-2.127-.157-3.81-.672-3.764-3.134.045-2.327,1.757-2.628,3.684-2.8,2.59-.231,2.073,1.478,2.071,3.113" transform="translate(-6.042 -15.316)" fill="#ebccb0"/>
    <path id="Trazado_725903" data-name="Trazado 725903" d="M95.285,56.843c-.058-1.734-.381-3.33,2.129-3.09,1.94.186,3.613.538,3.613,2.866,0,2.474-1.721,2.93-3.827,3.066-2.747.178-1.73-1.775-1.915-2.842" transform="translate(-27.146 -15.314)" fill="#ebccb0"/>
    <path id="Trazado_725904" data-name="Trazado 725904" d="M213.191,42.673a17.628,17.628,0,1,1-17.535-17.721,17.523,17.523,0,0,1,17.535,17.721M192.652,52.4a11.767,11.767,0,0,0,.938-.751c3.96-3.951,7.947-7.876,11.854-11.879,1.781-1.825-.606-2.352-1.3-3.275s-1.486-2.389-3.04-.712c-2.02,2.181-4.321,4.11-6.255,6.36-1.577,1.833-2.813,2.262-4.313.071-1.2-1.752-2.166-1.254-3.619.006-2.133,1.85-2.163,3.145.038,4.875a58.513,58.513,0,0,1,4.335,4.24,15.511,15.511,0,0,0,1.358,1.065" transform="translate(-50.716 -7.112)" fill="#f9e5a3"/>
    <path id="Trazado_725905" data-name="Trazado 725905" d="M213.192,215.743a17.627,17.627,0,1,1-17.746-17.616,17.735,17.735,0,0,1,17.746,17.616m-6.975-3.507c-.7-1.658-2.095-2.606-3.275-3.686-1.14-1.043-1.63.381-2.208.925a79.578,79.578,0,0,0-5.766,5.784c-1.612,1.868-2.942,2.544-4.576.119-1.09-1.615-2.044-1.156-3.357.033-1.928,1.745-2.549,3.079-.126,4.905a29.389,29.389,0,0,1,4.029,4c1.138,1.271,1.958,1.528,3.307.094,3.4-3.621,7-7.065,10.51-10.587.495-.5.952-1.03,1.461-1.585" transform="translate(-50.718 -56.472)" fill="#f9e5a3"/>
    <path id="Trazado_725906" data-name="Trazado 725906" d="M211.868,146.905a17.662,17.662,0,1,1,17.88-17.517,17.779,17.779,0,0,1-17.88,17.517m-2.823-7.787a11.661,11.661,0,0,0,1.03-.791Q216,132.424,221.9,126.5c.481-.483.944-.864.442-1.78-1.667-3.035-3.629-3.418-6.043-1.015-1.765,1.757-3.63,3.428-5.251,5.311-1.4,1.622-2.52,1.947-3.848.041-1.206-1.732-2.249-1.788-3.872-.155-1.742,1.754-2.42,2.9-.089,4.661a49.223,49.223,0,0,1,4.567,4.48c.39.385.829.721,1.235,1.07" transform="translate(-55.381 -31.804)" fill="#fae6a4"/>
    <path id="Trazado_725907" data-name="Trazado 725907" d="M57.7,82.911c-4.174-.282-7.647-1.833-10.029-5.3-.518-.752-2.267-1.92-.335-2.728,1.473-.616,2.73-3.067,4.86-1.052,4.347,4.113,7,4.15,11.067.084,2.093-2.094,3.353.317,4.84.887,1.983.759.355,1.947-.175,2.72C65.466,81.11,61.9,82.7,57.7,82.911" transform="translate(-13.238 -20.822)" fill="#070706"/>
    <path id="Trazado_725908" data-name="Trazado 725908" d="M195.594,56.414a15.51,15.51,0,0,1-1.358-1.065,58.514,58.514,0,0,0-4.335-4.24c-2.2-1.73-2.171-3.025-.038-4.875,1.453-1.26,2.421-1.757,3.619-.006,1.5,2.191,2.736,1.762,4.313-.071,1.934-2.249,4.236-4.178,6.255-6.36,1.554-1.677,2.357-.2,3.04.712s3.077,1.45,1.3,3.275c-3.907,4-7.894,7.928-11.854,11.879a11.769,11.769,0,0,1-.938.751" transform="translate(-53.658 -11.125)" fill="#060605"/>
    <path id="Trazado_725909" data-name="Trazado 725909" d="M209.163,216.243c-.51.556-.967,1.089-1.461,1.585-3.511,3.522-7.105,6.965-10.51,10.587-1.348,1.434-2.169,1.177-3.307-.094a29.389,29.389,0,0,0-4.029-4c-2.423-1.827-1.8-3.16.126-4.905,1.313-1.189,2.267-1.648,3.357-.033,1.634,2.424,2.964,1.748,4.576-.119a79.582,79.582,0,0,1,5.766-5.784c.578-.544,1.067-1.968,2.208-.925,1.18,1.08,2.572,2.028,3.275,3.686" transform="translate(-53.664 -60.478)" fill="#0c0b08"/>
    <path id="Trazado_725910" data-name="Trazado 725910" d="M212.012,143.328c-.407-.35-.846-.685-1.235-1.07a49.221,49.221,0,0,0-4.567-4.48c-2.332-1.765-1.654-2.907.089-4.661,1.622-1.633,2.665-1.577,3.872.155,1.328,1.905,2.451,1.581,3.848-.041,1.621-1.883,3.486-3.553,5.251-5.311,2.414-2.4,4.376-2.021,6.043,1.015.5.916.039,1.3-.442,1.78q-5.9,5.924-11.828,11.823a11.656,11.656,0,0,1-1.03.791" transform="translate(-58.349 -36.014)" fill="#0c0b08"/>
  </g>
</svg>
